<svg xmlns="http://www.w3.org/2000/svg" viewBox="0 0 420 320" role="img" aria-label="Charged pendulum in a uniform electric field">
  <rect width="420" height="320" fill="#fafafa"/>
  <text x="210" y="24" text-anchor="middle" font-family="Figtree,Segoe UI,sans-serif" font-size="14" fill="#111">Charged ball in uniform E</text>
  <line x1="80" y1="50" x2="200" y2="50" stroke="#111" stroke-width="3"/>
  <line x1="140" y1="50" x2="140" y2="230" stroke="#bbb" stroke-dasharray="4 3"/>
  <line x1="140" y1="50" x2="210" y2="210" stroke="#111" stroke-width="2"/>
  <circle cx="210" cy="220" r="16" fill="#3d9a6a"/>
  <text x="210" y="225" text-anchor="middle" font-size="10" fill="#fff">m</text>
  <path d="M140 90 A40 40 0 0 1 168 78" fill="none" stroke="#c45c26" stroke-width="1.5"/>
  <text x="175" y="85" font-size="12" fill="#c45c26">theta=15°</text>
  <g stroke="#e67e22" stroke-width="2">
    <line x1="260" y1="100" x2="360" y2="100"/><polygon points="360,100 348,95 348,105" fill="#e67e22"/>
    <line x1="260" y1="130" x2="360" y2="130"/><polygon points="360,130 348,125 348,135" fill="#e67e22"/>
    <line x1="260" y1="160" x2="360" y2="160"/><polygon points="360,160 348,155 348,165" fill="#e67e22"/>
    <line x1="260" y1="190" x2="360" y2="190"/><polygon points="360,190 348,185 348,195" fill="#e67e22"/>
  </g>
  <text x="310" y="80" text-anchor="middle" font-size="12" fill="#e67e22">E</text>
  <text x="210" y="270" text-anchor="middle" font-size="12" fill="#555">L = 20 cm · E = 1.00e3 N/C</text>
</svg>
